<svg width="26" height="36" viewBox="0 0 26 36" fill="none" xmlns="http://www.w3.org/2000/svg"><mask id="path-1-inside-1" fill="#fff"><path fill-rule="evenodd" clip-rule="evenodd" d="M13 36C13 36 26 20.0405 26 12.9103 26 5.78016 20.1797.0 13 0 5.8203.0.0 5.78016.0 12.9103.0 20.0405 13 36 13 36zm0-19c2.7614.0 5-2.2386 5-5C18 9.23858 15.7614 7 13 7 10.2386 7 8 9.23858 8 12c0 2.7614 2.2386 5 5 5z"/></mask><path fill-rule="evenodd" clip-rule="evenodd" d="M13 36C13 36 26 20.0405 26 12.9103 26 5.78016 20.1797.0 13 0 5.8203.0.0 5.78016.0 12.9103.0 20.0405 13 36 13 36zm0-19c2.7614.0 5-2.2386 5-5C18 9.23858 15.7614 7 13 7 10.2386 7 8 9.23858 8 12c0 2.7614 2.2386 5 5 5z" fill="#f2f2f2"/><path d="M13 36 11.4493 37.2631 13 39.1668 14.5507 37.2631 13 36zM24 12.9103C24 14.2069 23.3704 16.1905 22.1712 18.6494 21.0072 21.0361 19.4357 23.6168 17.8353 26.0206 16.2395 28.4172 14.64 30.6005 13.4375 32.1867 12.837 32.9788 12.3372 33.6197 11.9888 34.0611 11.8146 34.2818 11.6783 34.4525 11.5862 34.5672 11.5402 34.6245 11.5053 34.6678 11.4822 34.6963 11.4707 34.7106 11.4621 34.7212 11.4566 34.728 11.4538 34.7314 11.4518 34.7338 11.4506 34.7353 11.45 34.7361 11.4496 34.7366 11.4494 34.7368 11.4493 34.737 11.4493 34.737 11.4492 34.737 11.4493 34.737 11.4493 34.7369 13 36 14.5507 37.2631 14.5508 37.2629 14.5511 37.2626 14.5512 37.2624 14.5515 37.2621 14.5518 37.2617 14.5524 37.261 14.5531 37.2601 14.5541 37.2589 14.5561 37.2565 14.5588 37.2531 14.5623 37.2488 14.5693 37.2402 14.5793 37.2278 14.5924 37.2117 14.6185 37.1794 14.6565 37.1322 14.7057 37.0709 14.8041 36.9483 14.9472 36.7691 15.1284 36.5395 15.4909 36.0803 16.0068 35.4187 16.625 34.6032 17.86 32.9742 19.5105 30.7219 21.1647 28.2374 22.8143 25.76 24.4928 23.014 25.7663 20.4029 27.0046 17.8641 28 15.1789 28 12.9103H24zM13 2C19.0882 2 24 6.89775 24 12.9103h4C28 4.66256 21.2712-2 13-2V2zM2 12.9103C2 6.89775 6.9118 2 13 2V-2C4.7288-2-2 4.66256-2 12.9103H2zM13 36C14.5507 34.7369 14.5507 34.737 14.5508 34.737 14.5507 34.737 14.5507 34.737 14.5506 34.7368 14.5504 34.7366 14.55 34.7361 14.5494 34.7353 14.5482 34.7338 14.5462 34.7314 14.5434 34.728 14.5379 34.7212 14.5293 34.7106 14.5178 34.6963 14.4947 34.6678 14.4598 34.6245 14.4138 34.5672 14.3217 34.4525 14.1854 34.2818 14.0112 34.0611 13.6628 33.6197 13.163 32.9788 12.5625 32.1867 11.36 30.6005 9.76051 28.4172 8.16474 26.0206 6.56429 23.6168 4.99285 21.0361 3.82885 18.6494 2.62957 16.1905 2 14.2069 2 12.9103H-2C-2 15.1789-1.00457 17.8641.233652 20.4029 1.50715 23.014 3.18571 25.76 4.83526 28.2374 6.48949 30.7219 8.13999 32.9742 9.37498 34.6032 9.99321 35.4187 10.5091 36.0803 10.8716 36.5395 11.0528 36.7691 11.1959 36.9483 11.2943 37.0709 11.3435 37.1322 11.3815 37.1794 11.4076 37.2117 11.4207 37.2278 11.4307 37.2402 11.4377 37.2488 11.4412 37.2531 11.4439 37.2565 11.4459 37.2589 11.4469 37.2601 11.4476 37.261 11.4482 37.2617 11.4485 37.2621 11.4488 37.2624 11.4489 37.2626 11.4492 37.2629 11.4493 37.2631 13 36zm3-24C16 13.6569 14.6569 15 13 15v4C16.866 19 20 15.866 20 12H16zM13 9C14.6569 9 16 10.3431 16 12h4C20 8.13401 16.866 5 13 5V9zm-3 3C10 10.3431 11.3431 9 13 9V5C9.13401 5 6 8.13401 6 12h4zm3 3C11.3431 15 10 13.6569 10 12H6C6 15.866 9.13401 19 13 19V15z" fill="#f2f2f2" mask="url(#path-1-inside-1)"/></svg>